<svg width="512" height="512" viewBox="0 0 24 24" fill="none" xmlns="http://www.w3.org/2000/svg">
  <!-- Main stem -->
  <path d="M12 19V10" stroke="#4a6741" stroke-width="1.5" stroke-linecap="round"/>
  
  <!-- Back layer leaves - larger, positioned behind -->
  <ellipse cx="8" cy="12" rx="2.8" ry="2.2" fill="#4a6741" transform="rotate(-25 8 12)" fill-opacity="0.7"/>
  <ellipse cx="16" cy="11" rx="2.8" ry="2.2" fill="#4a6741" transform="rotate(25 16 11)" fill-opacity="0.7"/>
  
  <!-- Main large leaves - prominent front layer -->
  <ellipse cx="9.5" cy="9.5" rx="3.2" ry="2.8" fill="#4a6741" transform="rotate(-15 9.5 9.5)" fill-opacity="0.95"/>
  <ellipse cx="14.5" cy="8.5" rx="3.2" ry="2.8" fill="#4a6741" transform="rotate(15 14.5 8.5)" fill-opacity="0.95"/>
  
  <!-- Center top leaf -->
  <ellipse cx="12" cy="7" rx="2" ry="2.5" fill="#4a6741"/>
  
  <!-- Small side leaves for fullness -->
  <ellipse cx="10" cy="13" rx="1.8" ry="1.5" fill="#4a6741" transform="rotate(-30 10 13)" fill-opacity="0.8"/>
  <ellipse cx="14" cy="12.5" rx="1.8" ry="1.5" fill="#4a6741" transform="rotate(30 14 12.5)" fill-opacity="0.8"/>
  
  <!-- Small emerging leaves near base -->
  <ellipse cx="11" cy="16" rx="1.2" ry="1" fill="#4a6741" transform="rotate(-10 11 16)" fill-opacity="0.6"/>
  <ellipse cx="13" cy="16.5" rx="1.2" ry="1" fill="#4a6741" transform="rotate(10 13 16.5)" fill-opacity="0.6"/>
  
  <!-- Larger terracotta pot - better proportioned -->
  <path d="M7.5 19H16.5L15.5 22.5C15.5 23 15 23 12 23C9 23 8.5 23 8.5 22.5L7.5 19Z" fill="#CD7F32" fill-opacity="0.8"/>
  
  <!-- Pot rim -->
  <ellipse cx="12" cy="19" rx="4.5" ry="1" fill="#B8671F" fill-opacity="0.9"/>
  
  <!-- Soil/dirt surface -->
  <ellipse cx="12" cy="19.3" rx="4" ry="0.6" fill="#8B4513" fill-opacity="0.7"/>
  
  <!-- Small plant sprout details -->
  <circle cx="10" cy="18.8" r="0.3" fill="#4a6741" fill-opacity="0.6"/>
  <circle cx="14" cy="18.9" r="0.2" fill="#4a6741" fill-opacity="0.6"/>
  <circle cx="11.8" cy="18.7" r="0.2" fill="#4a6741" fill-opacity="0.5"/>
  <circle cx="12.5" cy="18.9" r="0.15" fill="#4a6741" fill-opacity="0.5"/>
</svg> 